<?xml version="1.0" encoding="utf-8"?>
<!-- Generator: Adobe Illustrator 26.5.0, SVG Export Plug-In . SVG Version: 6.00 Build 0)  -->
<svg version="1.1" id="Layer_1" xmlns="http://www.w3.org/2000/svg" xmlns:xlink="http://www.w3.org/1999/xlink" x="0px" y="0px"
	 viewBox="0 0 48 49" style="enable-background:new 0 0 48 49;" xml:space="preserve">
<style type="text/css">
	.st0{fill:#A08CDA;}
</style>
<g>
	<path class="st0" d="M34.9,16.1c-1.7-0.8-3.6-1.4-5.6-1.7h-0.1c-0.2,0.4-0.5,1-0.7,1.4c-2.1-0.3-4.2-0.3-6.3,0
		c-0.2-0.4-0.5-1-0.7-1.4c0,0-0.1-0.1-0.1,0c-2,0.3-3.8,0.9-5.6,1.7l0,0c-3.5,5.3-4.5,10.5-4,15.6v0.1c2.3,1.7,4.6,2.8,6.8,3.5h0.1
		c0.5-0.7,1-1.5,1.4-2.3c0,0,0-0.1-0.1-0.1c-0.7-0.3-1.5-0.6-2.1-1c-0.1,0-0.1-0.1,0-0.1c0.1-0.1,0.3-0.2,0.4-0.3h0.1
		c4.5,2.1,9.3,2.1,13.8,0h0.1c0.1,0.1,0.3,0.2,0.4,0.3c0.1,0,0,0.1,0,0.1c-0.7,0.4-1.4,0.7-2.1,1c-0.1,0-0.1,0.1,0,0.1
		c0.4,0.8,0.9,1.6,1.4,2.3h0.1c2.2-0.7,4.5-1.7,6.9-3.5c0,0,0,0,0-0.1C39.6,25.8,38,20.7,34.9,16.1C34.9,16.2,34.9,16.1,34.9,16.1z
		 M20.8,28.7c-1.3,0-2.5-1.2-2.5-2.8s1.1-2.8,2.5-2.8s2.5,1.3,2.5,2.8C23.3,27.4,22.2,28.7,20.8,28.7z M29.9,28.7
		c-1.3,0-2.5-1.2-2.5-2.8s1.1-2.8,2.5-2.8s2.5,1.3,2.5,2.8C32.4,27.4,31.3,28.7,29.9,28.7z"/>
</g>
</svg>
