<?xml version="1.0" encoding="utf-8"?>
<!-- Generator: Adobe Illustrator 27.1.1, SVG Export Plug-In . SVG Version: 6.00 Build 0)  -->
<svg version="1.1" id="Layer_1" xmlns="http://www.w3.org/2000/svg" xmlns:xlink="http://www.w3.org/1999/xlink" x="0px" y="0px"
	 viewBox="0 0 90 90" style="enable-background:new 0 0 90 90;" xml:space="preserve">
<style type="text/css">
	.st0{fill-rule:evenodd;clip-rule:evenodd;fill:#FFFFFF;}
</style>
<g id="Symbols">
	<g id="footer" transform="translate(-1338.000000, -227.000000)">
		<g id="Group-7" transform="translate(1182.000000, 227.000000)">
			<g id="opensea" transform="translate(156.000000, 0.000000)">
				<path id="Fill-1" class="st0" d="M73.2,52v3c0,0.2,0,0.2-0.2,0.4c-0.9,0.4-4.2,1.9-5.3,3.6c-3.4,4.7-5.9,11.2-11.5,11.2h-24
					c-8.3,0-15.3-6.9-15.3-15.4v-0.2c0-0.2,0.2-0.4,0.4-0.4h13.4c0.2,0,0.4,0.2,0.4,0.4c0,0.8,0,1.7,0.4,2.6
					c0.8,1.7,2.5,2.6,4.2,2.6h6.6v-5h-6.4c-0.4,0-0.6-0.4-0.4-0.6c0,0,0.2-0.2,0.2-0.4c0.6-0.9,1.5-2.2,2.5-3.8
					c0.6-0.9,1.1-2.2,1.7-3.4c0-0.2,0.2-0.4,0.2-0.6c0-0.4,0.2-0.8,0.4-0.9c0.2-0.2,0.2-0.6,0.2-0.8c0.2-0.9,0.2-1.9,0.2-3
					c0-0.4,0-0.8,0-1.3c0-0.4,0-0.9,0-1.3c0-0.4,0-0.7-0.2-1.1c0-0.6-0.2-1.1-0.4-1.9v-0.2c0-0.4-0.2-0.8-0.4-1.1
					c-0.4-1.3-0.8-2.6-1.3-3.6c-0.2-0.4-0.4-0.9-0.6-1.3c-0.2-0.6-0.6-1.3-0.8-1.9c0-0.2-0.2-0.4-0.4-0.7c0-0.2-0.2-0.6-0.4-0.8
					l-0.2-0.6L35.3,24c0-0.2,0-0.4,0.2-0.4l5.1,1.3l0.6,0.2l0.8,0.2h0.2v-3c0-1.5,1.1-2.6,2.6-2.6c0.8,0,1.3,0.2,1.9,0.8
					c0.4,0.4,0.8,1.1,0.8,1.9v4.3l0.6,0.2l0,0c0,0,0.2,0.2,0.6,0.4c0.2,0.2,0.4,0.4,0.6,0.6c0.4,0.4,1.1,0.9,1.7,1.5
					c0.2,0.2,0.4,0.2,0.4,0.4c0.8,0.7,1.7,1.7,2.6,2.6c0.2,0.2,0.4,0.6,0.8,0.8c0.2,0.2,0.4,0.6,0.8,0.9c0.2,0.4,0.6,0.7,0.9,1.1
					c0,0.2,0.2,0.4,0.4,0.6c0.4,0.6,0.6,1.1,0.9,1.7c0,0.2,0.2,0.6,0.4,0.8c0.4,0.8,0.6,1.5,0.8,2.2c0,0.2,0,0.4,0,0.4
					c0,0.2,0,0.4,0,0.7c0,0.8,0,1.5,0,2.4c0,0.4-0.2,0.6-0.2,0.9c0,0.2-0.2,0.6-0.4,0.9c-0.2,0.6-0.6,1.3-0.9,1.9
					c0,0.2-0.2,0.4-0.4,0.8c-0.2,0.2-0.4,0.4-0.4,0.8c-0.2,0.2-0.4,0.6-0.6,0.7c-0.2,0.2-0.4,0.6-0.6,0.8c-0.2,0.4-0.6,0.8-0.9,1.1
					c-0.2,0.2-0.4,0.4-0.6,0.6c-0.2,0.2-0.4,0.4-0.6,0.6c-0.2,0.2-0.6,0.6-0.8,0.8L52,54.3h-0.2h-4v5.1h5.1c1.1,0,2.3-0.4,3-1.1
					c0.2-0.2,1.5-1.3,3-3c0,0,0,0,0.2,0l13.8-3.9C73,51.4,73.2,51.6,73.2,52"/>
			</g>
		</g>
	</g>
</g>
</svg>
