<?xml version="1.0" encoding="utf-8"?>
<!-- Generator: Adobe Illustrator 27.1.1, SVG Export Plug-In . SVG Version: 6.00 Build 0)  -->
<svg version="1.1" id="Layer_1" xmlns="http://www.w3.org/2000/svg" xmlns:xlink="http://www.w3.org/1999/xlink" x="0px" y="0px"
	 viewBox="0 0 48 49" style="enable-background:new 0 0 48 49;" xml:space="preserve">
<style type="text/css">
	.st0{fill-rule:evenodd;clip-rule:evenodd;fill:#FFFFFF;}
</style>
<g id="Symbols">
	<g id="footer" transform="translate(-1260.000000, -227.000000)">
		<g id="Group-7" transform="translate(1182.000000, 227.000000)">
			<g id="twitter" transform="translate(78.000000, 0.000000)">
				<path id="Fill-1" class="st0" d="M40,15.2c-1,0.5-2.2,0.9-3.4,1c1.2-0.8,2.2-1.9,2.7-3.6c-1.2,0.8-2.4,1.2-3.7,1.5
					c-1-1.2-2.7-1.9-4.4-1.9c-3.2,0-5.9,2.8-5.9,6.4c0,0.5,0,1,0.1,1.5c-5-0.2-9.4-2.8-12.4-6.5c-0.5,1-0.9,1.9-0.9,3.2
					c0,2.2,1,4.1,2.7,5.4c-1,0-1.9-0.3-2.7-0.8v0.2c0,0.9,0.1,1.6,0.3,2.3c0.8,1.9,2.4,3.6,4.4,4c-0.5,0.1-1,0.2-1.6,0.2
					c-0.3,0-0.8,0-1-0.1c0.8,2.4,2.9,4.4,5.6,4.4c-2,1.7-4.6,2.7-7.5,2.7c-0.5,0-1,0-1.5-0.1c2.7,1.7,5.8,2.8,9.3,2.8
					c9.4,0,15.2-6.9,16.7-14.2c0.2-1.2,0.3-2.6,0.3-3.8c0-0.2,0-0.5,0-0.9C38.1,17.6,39.2,16.5,40,15.2"/>
			</g>
		</g>
	</g>
</g>
</svg>
